<svg width="179" height="36" viewBox="0 0 179 36" fill="none" xmlns="http://www.w3.org/2000/svg">
<g clip-path="url(#clip0_96_5)">
<path d="M0 23.0388C0 17.3172 3.00791 12.3024 6.21739 9.06035C10.2292 5.00776 17.751 0.5 32.0909 0.5C34.8498 0.5 37.6047 0.599817 40.3636 0.85535C41.7668 0.955168 42.3202 1.61396 42.1186 3.08328L41.7194 6.37725C41.5692 7.49122 41.2688 8.35364 39.7154 8.20192C37.6087 7.99829 35.253 7.89847 33.0474 7.89847C26.6285 7.89847 20.0593 9.06434 15.6482 13.5202C13.2925 15.8998 11.7866 19.2936 11.7866 22.1804C11.7866 26.6362 14.7945 28.5607 19.0593 28.5607C20.5138 28.5607 22.0158 28.409 23.1225 28.1574L26.7312 20.711C27.3834 19.4454 27.9328 18.8385 29.3874 18.8385H36.8103C38.0632 18.8385 38.415 19.8007 37.8142 21.0185L32.1462 32.4655C31.5455 33.6793 30.5929 34.0866 29.5375 34.2902C26.7312 34.8492 21.5138 35.2005 17.1542 35.2005C7.16996 35.1966 0 31.5512 0 23.0388Z" fill="white"/>
<path d="M39.9644 34.5897C38.7628 34.5897 38.3597 33.6793 39.0119 32.3618L53.751 2.98348C54.4032 1.71779 54.9526 1.1109 56.4071 1.1109H79.2213C80.5771 1.1109 80.8261 2.07314 80.1739 3.33883L78.7194 6.22555C78.0158 7.64296 77.3676 8.09812 76.0632 8.09812H62.4229L59.6166 13.7198H72.2016C73.3557 13.7198 73.9051 14.6302 73.2055 15.9997L71.751 18.8345C71.0474 20.2 70.3992 20.7071 69.0949 20.7071H56.1581L52.6996 27.5945H69.2964C70.4506 27.5945 71 28.5048 70.3004 29.8743L68.7945 32.7091C68.0435 34.0786 67.4387 34.5817 66.1383 34.5817H39.9644V34.5897Z" fill="white"/>
<path d="M100.688 29.9302C98.7826 25.0671 95.3241 17.3692 93.8696 14.7859L84.8458 32.7171C84.1423 34.1345 83.4901 34.5897 82.1897 34.5897H75.4704C74.2688 34.5897 73.917 33.5755 74.5178 32.3618L89.2016 2.98348C89.8537 1.71779 90.4032 1.1109 91.8577 1.1109H97.4743C99.079 1.1109 99.7826 1.66988 100.735 3.1871C102.241 5.56675 105.549 12.6578 107.304 17.2174L114.324 2.98348C115.028 1.56607 115.68 1.1109 116.98 1.1109H123.7C124.403 1.1109 124.953 1.51416 124.953 2.27677C124.953 2.63212 124.704 3.1871 124.549 3.54245L110.308 31.9066C109.257 33.9828 108 35.504 105.696 35.504C103.391 35.504 102.087 33.5276 100.68 29.9302H100.688Z" fill="white"/>
<path d="M119.138 34.5897C117.937 34.5897 117.534 33.6274 118.186 32.3618L132.877 2.98348C133.53 1.71779 134.079 1.1109 135.534 1.1109H142.957C144.21 1.1109 144.561 2.12505 143.961 3.33883L129.269 32.7171C128.617 33.9828 128.067 34.5897 126.613 34.5897H119.142H119.138Z" fill="white"/>
<path d="M138.443 34.5897C137.241 34.5897 136.838 33.6793 137.49 32.3618L152.229 2.98348C152.881 1.71779 153.431 1.1109 154.885 1.1109H177.7C179.055 1.1109 179.304 2.07314 178.652 3.33883L177.198 6.22555C176.494 7.64296 175.846 8.09812 174.542 8.09812H160.901L158.095 13.7198H170.68C171.834 13.7198 172.383 14.6302 171.684 15.9997L170.229 18.8345C169.526 20.2 168.877 20.7071 167.573 20.7071H154.636L151.178 27.5945H167.775C168.929 27.5945 169.478 28.5048 168.779 29.8743L167.273 32.7091C166.522 34.0786 165.917 34.5817 164.617 34.5817H138.443V34.5897Z" fill="white"/>
</g>
<defs>
<clipPath id="clip0_96_5">
<rect width="179" height="35" fill="white" transform="translate(0 0.5)"/>
</clipPath>
</defs>
</svg>
