<svg width="75" height="36" viewBox="0 0 75 36" fill="none" xmlns="http://www.w3.org/2000/svg">
<g clip-path="url(#clip0_214_1398)">
<path d="M10.0823 31.538C6.70731 31.538 3.96206 28.7928 3.96206 25.4177H0C0 30.9773 4.52279 35.5001 10.0823 35.5001C15.6419 35.5001 20.1647 30.9773 20.1647 25.4177H16.2026C16.2026 28.7928 13.4574 31.538 10.0823 31.538Z" fill="white"/>
<path d="M20.1647 5.25305C16.2026 6.36874 15.4668 5.25305 10.0823 5.25305C4.69791 5.25305 0 9.77584 0 15.3354C0 20.8949 4.52279 25.4177 10.0823 25.4177C15.6419 25.4177 20.1647 20.8949 20.1647 15.3354C20.1647 12.8779 19.2808 10.6235 17.8141 8.87227C19.1986 8.25481 20.1647 6.86698 20.1647 5.25305ZM10.0823 21.4557C6.70731 21.4557 3.96206 18.7104 3.96206 15.3354C3.96206 11.9604 6.70731 9.21511 10.0823 9.21511C13.4574 9.21511 16.2026 11.9604 16.2026 15.3354C16.2026 18.7104 13.4574 21.4557 10.0823 21.4557Z" fill="white"/>
<path d="M56.2762 4.57059C57.2711 4.81889 58.2659 4.11428 58.5561 2.9953C58.8044 1.87632 58.2248 0.75734 57.23 0.550152C56.2762 0.301855 55.2403 1.00646 54.992 2.12544C54.7018 3.24442 55.2822 4.32229 56.2771 4.57059H56.2762Z" fill="white"/>
<path d="M74.8023 16.9222C74.6363 16.715 74.3049 16.715 74.1397 17.0052C73.8914 17.6268 72.5644 19.4923 70.6586 20.4452C69.1663 21.1909 68.0473 21.5642 67.0114 21.5642C66.3479 21.5642 65.7674 21.44 65.1048 21.1498C64.276 20.8184 63.4884 20.0719 63.2401 18.6216C64.0277 18.4555 65.4369 18.0411 67.0944 17.2124C70.162 15.7201 72.0267 13.5652 72.0267 11.6997C72.0267 11.2023 71.8606 10.746 71.6123 10.3316C70.9907 9.33677 69.7887 8.9635 68.4625 8.9635C67.0122 8.9635 65.3958 9.41899 64.3179 9.99944C62.2452 11.1595 60.0492 13.0662 59.5929 16.3409C59.5123 16.918 59.514 17.5955 59.6792 18.2944C59.4096 18.7203 59.0766 19.1782 58.6819 19.6148C57.8532 20.5677 56.4851 21.4803 55.6563 21.0651C55.3661 20.9409 55.242 20.4024 55.242 19.7389C55.242 18.5369 55.6152 16.7544 55.8643 15.3872C56.2368 13.2733 57.2316 10.3719 56.9003 9.66728C56.7342 9.25291 56.1957 9.04572 55.6983 9.00461C55.242 8.9635 54.8284 9.00461 54.2891 9.62617C53.7505 10.2066 53.087 12.6107 52.4655 15.4702C52.301 16.2521 52.218 16.9526 52.2172 17.6522C51.8513 18.3092 51.3473 19.0179 50.6846 19.7809C49.814 20.7757 48.8191 21.4803 48.1145 21.3142C47.576 21.1481 47.9073 19.5317 47.9904 18.9932C48.1976 17.667 49.0682 13.7708 49.0682 12.4446C49.0682 11.4086 48.5708 9.62617 46.7884 9.12876C44.8817 8.67327 43.0993 10.621 41.8561 12.4035C40.53 14.2271 39.7012 16.2167 39.369 16.7553C39.2449 17.0036 39.0377 17.1285 38.9127 17.0866C38.7886 17.0866 38.6644 16.8794 38.7467 16.5481C38.8708 15.9676 40.0728 10.7452 40.1978 10.1655C40.3639 9.54396 39.5762 9.29484 39.0377 9.25373C38.4992 9.25373 37.9187 9.12958 37.5044 9.54396C37.09 9.95833 36.4684 12.3213 36.0532 15.0566C35.9241 15.9364 35.823 16.8399 35.7424 17.6901C35.171 18.5213 34.0742 19.7356 32.6552 20.4452C31.1629 21.1909 30.0439 21.5642 29.008 21.5642C28.3445 21.5642 27.764 21.44 27.1014 21.1498C26.2726 20.8184 25.485 20.0719 25.2367 18.6216C26.0243 18.4555 27.4335 18.0411 29.091 17.2124C32.1586 15.7201 34.0233 13.5652 34.0233 11.6997C34.0233 11.2023 33.8572 10.746 33.6089 10.3316C32.9873 9.33677 31.7853 8.9635 30.4591 8.9635C29.0088 8.9635 27.3924 9.41899 26.3145 9.99944C24.2418 11.1595 22.0458 13.0662 21.5895 16.3409C21.3823 17.8331 21.7137 19.988 24.0347 21.4803C25.2367 22.2679 26.77 22.6823 28.3864 22.6823C29.8787 22.6823 31.4951 22.309 32.9462 21.6044C34.1622 21.0067 34.9934 20.3128 35.5813 19.6567C35.5114 20.6236 35.4678 21.3685 35.4325 21.6875C35.3914 22.4751 36.3023 22.3502 37.0078 22.3502C37.6704 22.3502 38.417 22.226 38.583 21.6875C38.7491 21.107 40.1583 17.1696 41.6917 14.4754C43.267 11.74 45.2978 10.2477 45.9604 10.4549C46.6231 10.6621 46.3748 11.6158 46.2507 12.1955C46.1265 12.734 45.1728 16.2989 44.8003 18.3297C44.4271 20.3194 45.5461 22.1841 47.2866 22.5573C48.7788 22.9306 50.2292 21.7697 51.0579 20.9821C51.4698 20.5701 51.9615 19.965 52.3898 19.3385C52.7738 21.098 53.7637 22.2392 54.9534 22.4324C56.6528 22.6396 58.062 21.6447 58.7666 21.0232C59.2213 20.6096 59.6965 20.0316 60.1051 19.4323C60.4891 20.1648 61.1016 20.876 62.0397 21.4795C63.2417 22.2671 64.7751 22.6815 66.3923 22.6815C67.8845 22.6815 69.5009 22.3082 70.9513 21.6036C73.4794 20.3605 74.3501 18.7022 74.8056 17.8323C75.0128 17.459 74.9717 17.1277 74.8056 16.9205L74.8023 16.9222ZM25.4406 15.0155C26.3113 11.1612 28.7564 9.627 30.2898 10.3324C30.7872 10.5396 30.9944 11.0781 30.9944 11.7005C30.9944 13.0267 30.1245 14.8503 28.8806 15.9281C27.6374 16.9641 26.0621 17.3374 25.1092 17.4615C25.1092 16.7569 25.1923 15.9693 25.4406 15.0164V15.0155ZM63.4456 15.0155C64.3163 11.1612 66.7615 9.627 68.2948 10.3324C68.7922 10.5396 68.9994 11.0781 68.9994 11.7005C68.9994 13.0267 68.1296 14.8503 66.8856 15.9281C65.6425 16.9641 64.0672 17.3374 63.1143 17.4615C63.1143 16.7569 63.1973 15.9693 63.4456 15.0164V15.0155Z" fill="white"/>
</g>
<defs>
<clipPath id="clip0_214_1398">
<rect width="74.9429" height="35" fill="white" transform="translate(0 0.5)"/>
</clipPath>
</defs>
</svg>
