<svg width="24" height="24" viewBox="0 0 24 24" fill="none" xmlns="http://www.w3.org/2000/svg">
<g clip-path="url(#clip0_40_342)">
<path d="M18.0391 8.36016H16.093C15.8663 8.36016 15.6506 8.26324 15.5005 8.09453L14.7111 7.20617C14.5936 7.07358 14.4243 6.99814 14.2471 6.99814C14.0699 6.99814 13.9006 7.07404 13.7831 7.20617L13.1061 7.96834C12.8844 8.21752 12.5664 8.36062 12.2322 8.36062H1.58013C1.27676 9.222 1.07894 10.1319 1 11.0755H11.0559C11.2326 11.0755 11.402 11.0037 11.5241 10.8766L12.4603 9.90325C12.5774 9.78163 12.7389 9.71305 12.9078 9.71305H12.9464C13.124 9.71305 13.2929 9.78894 13.4104 9.92154L14.1994 10.8099C14.3494 10.9791 14.5652 11.0755 14.7919 11.0755H23C22.9211 10.1314 22.7232 9.22155 22.4199 8.36062H18.0391V8.36016Z" fill="black"/>
<path d="M7.08544 16.7842C7.26214 16.7842 7.4315 16.7125 7.55358 16.5854L8.48987 15.612C8.60691 15.4903 8.76846 15.4218 8.93736 15.4218H8.97591C9.15353 15.4218 9.32243 15.4977 9.43993 15.6298L10.2289 16.5181C10.379 16.6873 10.5947 16.7838 10.8214 16.7838H21.9449C22.3616 15.9261 22.6668 15.0057 22.8486 14.0414H12.1717C11.945 14.0414 11.7292 13.9445 11.5792 13.7758L10.7902 12.8874C10.6727 12.7549 10.5033 12.6794 10.3262 12.6794C10.149 12.6794 9.97967 12.7553 9.86217 12.8874L9.1852 13.6496C8.96352 13.8988 8.64546 14.0419 8.31087 14.0419H1.15149C1.33324 15.0062 1.63891 15.9265 2.05519 16.7842H7.08544Z" fill="black"/>
<path d="M14.9768 5.39287C15.1535 5.39287 15.3229 5.32109 15.445 5.19398L16.3812 4.22058C16.4983 4.09897 16.6598 4.03038 16.8287 4.03038H16.8673C17.0449 4.03038 17.2138 4.10628 17.3313 4.23887L18.1203 5.12723C18.2703 5.2964 18.486 5.39287 18.7128 5.39287H20.8281C18.8137 2.72551 15.6097 1 12.0004 1C8.39113 1 5.1871 2.72551 3.17224 5.39287H14.9768Z" fill="black"/>
<path d="M10.7277 19.5019H7.83486C7.60814 19.5019 7.39242 19.405 7.24234 19.2362L6.45338 18.3479C6.33589 18.2153 6.16653 18.1399 5.98937 18.1399C5.81221 18.1399 5.64285 18.2158 5.52536 18.3479L4.84838 19.1101C4.6267 19.3592 4.30864 19.5023 3.97406 19.5023H3.92908C5.94439 21.6535 8.81429 23 12.0009 23C15.1875 23 18.0569 21.6535 20.0727 19.5023H10.7277V19.5019Z" fill="black"/>
</g>
<defs>
<clipPath id="clip0_40_342">
<rect width="22" height="22" fill="white" transform="translate(1 1)"/>
</clipPath>
</defs>
</svg>
