<svg width="24" height="24" viewBox="0 0 24 24" fill="none" xmlns="http://www.w3.org/2000/svg">
<g clip-path="url(#clip0_52_563)">
<path d="M18.0391 8.3602H16.093C15.8663 8.3602 15.6506 8.26327 15.5005 8.09456L14.7111 7.2062C14.5936 7.07361 14.4243 6.99817 14.2471 6.99817C14.0699 6.99817 13.9006 7.07407 13.7831 7.2062L13.1061 7.96837C12.8844 8.21755 12.5664 8.36065 12.2322 8.36065H1.58013C1.27676 9.22204 1.07894 10.1319 1 11.0756H11.0559C11.2326 11.0756 11.402 11.0038 11.5241 10.8767L12.4603 9.90328C12.5774 9.78166 12.7389 9.71308 12.9078 9.71308H12.9464C13.124 9.71308 13.2929 9.78898 13.4104 9.92157L14.1994 10.8099C14.3494 10.9791 14.5652 11.0756 14.7919 11.0756H23C22.9211 10.1314 22.7232 9.22158 22.4199 8.36065H18.0391V8.3602Z" fill="black"/>
<path d="M7.08532 16.7843C7.26202 16.7843 7.43138 16.7125 7.55346 16.5854L8.48975 15.612C8.60678 15.4904 8.76834 15.4218 8.93724 15.4218H8.97579C9.15341 15.4218 9.32231 15.4977 9.43981 15.6298L10.2288 16.5182C10.3788 16.6873 10.5946 16.7838 10.8213 16.7838H21.9447C22.3615 15.9261 22.6667 15.0057 22.8485 14.0415H12.1716C11.9448 14.0415 11.7291 13.9445 11.579 13.7758L10.7901 12.8875C10.6726 12.7549 10.5032 12.6794 10.3261 12.6794C10.1489 12.6794 9.97955 12.7553 9.86205 12.8875L9.18508 13.6496C8.9634 13.8988 8.64534 14.0419 8.31075 14.0419H1.15137C1.33312 15.0062 1.63879 15.9265 2.05507 16.7843H7.08532Z" fill="black"/>
<path d="M14.9769 5.39287C15.1536 5.39287 15.323 5.32109 15.4451 5.19398L16.3814 4.22058C16.4984 4.09897 16.66 4.03038 16.8288 4.03038H16.8674C17.045 4.03038 17.2139 4.10628 17.3314 4.23887L18.1204 5.12723C18.2705 5.2964 18.4862 5.39287 18.7129 5.39287H20.8283C18.8139 2.72551 15.6098 1 12.0005 1C8.39125 1 5.18722 2.72551 3.17236 5.39287H14.9769Z" fill="black"/>
<path d="M10.7278 19.5019H7.83499C7.60826 19.5019 7.39254 19.405 7.24246 19.2363L6.4535 18.3479C6.33601 18.2153 6.16665 18.1399 5.98949 18.1399C5.81233 18.1399 5.64297 18.2158 5.52548 18.3479L4.8485 19.1101C4.62683 19.3593 4.30876 19.5024 3.97418 19.5024H3.9292C5.94451 21.6535 8.81442 23 12.001 23C15.1876 23 18.057 21.6535 20.0728 19.5024H10.7278V19.5019Z" fill="black"/>
</g>
<defs>
<clipPath id="clip0_52_563">
<rect width="22" height="22" fill="white" transform="translate(1 1)"/>
</clipPath>
</defs>
</svg>
