<svg width="40" height="40" viewBox="0 0 40 40" fill="none" xmlns="http://www.w3.org/2000/svg">
<g clip-path="url(#clip0_96_173)">
<path d="M30.0652 13.9336H26.8218C26.4439 13.9336 26.0844 13.772 25.8343 13.4909L24.5186 12.0103C24.3228 11.7893 24.0405 11.6635 23.7452 11.6635C23.45 11.6635 23.1677 11.79 22.9719 12.0103L21.8436 13.2805C21.4741 13.6958 20.944 13.9344 20.3871 13.9344H2.63363C2.12801 15.37 1.79832 16.8864 1.66675 18.4592H18.4266C18.7211 18.4592 19.0034 18.3396 19.2068 18.1277L20.7673 16.5054C20.9624 16.3027 21.2316 16.1884 21.5131 16.1884H21.5774C21.8734 16.1884 22.1549 16.3149 22.3507 16.5359L23.6657 18.0165C23.9158 18.2984 24.2753 18.4592 24.6532 18.4592H38.3334C38.2018 16.8856 37.8722 15.3692 37.3665 13.9344H30.0652V13.9336Z" fill="current"/>
<path d="M11.8091 27.9737C12.1036 27.9737 12.3859 27.8541 12.5893 27.6423L14.1498 26.0199C14.3449 25.8172 14.6141 25.7029 14.8956 25.7029H14.9599C15.2559 25.7029 15.5374 25.8294 15.7333 26.0496L17.0482 27.5302C17.2983 27.8122 17.6578 27.973 18.0357 27.973H36.5748C37.2694 26.5434 37.7781 25.0095 38.081 23.4024H20.2862C19.9083 23.4024 19.5488 23.2409 19.2986 22.9597L17.9837 21.4791C17.7879 21.2581 17.5056 21.1324 17.2104 21.1324C16.9151 21.1324 16.6328 21.2588 16.437 21.4791L15.3087 22.7494C14.9392 23.1647 14.4091 23.4032 13.8515 23.4032H1.91919C2.22211 25.0103 2.73156 26.5442 3.42536 27.9737H11.8091Z" fill="current"/>
<path d="M24.9614 8.9881C25.2559 8.9881 25.5382 8.86847 25.7416 8.65662L27.3021 7.03429C27.4972 6.8316 27.7664 6.7173 28.0479 6.7173H28.1122C28.4082 6.7173 28.6897 6.84379 28.8855 7.06477L30.2005 8.54537C30.4506 8.82732 30.8101 8.9881 31.188 8.9881H34.7136C31.3563 4.5425 26.0162 1.66666 20.0007 1.66666C13.9852 1.66666 8.6452 4.5425 5.28711 8.9881H24.9614Z" fill="current"/>
<path d="M17.8796 32.5031H13.0582C12.6803 32.5031 12.3208 32.3416 12.0707 32.0604L10.7558 30.5798C10.5599 30.3588 10.2777 30.2331 9.9824 30.2331C9.68714 30.2331 9.40487 30.3596 9.20905 30.5798L8.08076 31.8501C7.71129 32.2654 7.18119 32.5039 6.62355 32.5039H6.54858C9.90744 36.0892 14.6906 38.3333 20.0016 38.3333C25.3126 38.3333 30.095 36.0892 33.4546 32.5039H17.8796V32.5031Z" fill="current"/>
</g>
<defs>
<clipPath id="clip0_96_173">
<rect width="36.6667" height="36.6667" fill="current" transform="translate(1.66675 1.66666)"/>
</clipPath>
</defs>
</svg>
