<svg width="22" height="17" viewBox="0 0 22 17" fill="none" xmlns="http://www.w3.org/2000/svg">
<path d="M18.968 2.1C16.28 -7.15256e-07 13.88 0.0999993 13.88 0.0999993L13.592 0.399999C16.664 1.4 18.2 2.8 18.2 2.8C13.88 0.299999 8.79199 0.299999 4.56799 2.2C3.79999 2.5 3.51199 2.7 3.51199 2.7C3.51199 2.7 5.04799 1.2 8.31199 0.199999L8.11999 0.0999993C8.11999 0.0999993 5.62399 -7.15256e-07 3.03199 2.1C3.03199 2.1 0.343994 7.1 0.343994 13.2C0.343994 13.2 1.87999 16 5.91199 16.1C5.91199 16.1 6.58399 15.2 7.06399 14.5C4.75999 13.7 3.89599 12.2 3.89599 12.2C4.18399 12.4 4.66399 12.7 4.66399 12.7C7.73599 14.5 12.152 15.1 16.088 13.4C16.76 13.1 17.432 12.7 18.2 12.3C18.2 12.3 17.24 13.9 14.936 14.6C15.512 15.3 16.088 16.1 16.088 16.1C20.12 16 21.656 13.2 21.656 13.3C21.656 7 18.968 2.1 18.968 2.1ZM7.54399 11.3C6.58399 11.3 5.71999 10.3 5.71999 9.2C5.71999 8.1 6.58399 7.1 7.54399 7.1C8.50399 7.1 9.36799 8.1 9.36799 9.2C9.36799 10.3 8.59999 11.3 7.54399 11.3ZM14.264 11.3C13.304 11.3 12.44 10.3 12.44 9.2C12.44 8.1 13.304 7.1 14.264 7.1C15.224 7.1 16.088 8.1 16.088 9.2C16.088 10.3 15.224 11.3 14.264 11.3Z" fill="white"/>
</svg>
