<svg width="24" height="24" viewBox="0 0 24 24" fill="none" xmlns="http://www.w3.org/2000/svg">
<path d="M21.3 4.32C20.52 4.8 19.62 5.1 18.72 5.28C18 4.5 16.92 4.02 15.78 4.02C13.32 4.02 11.28 6.24 11.82 9C8.45997 8.82 5.45997 7.2 3.47997 4.8C3.17997 5.34 2.99997 6 2.99997 6.78C2.99997 7.44 3.17997 8.1 3.47997 8.7C3.77997 9.3 4.25997 9.78 4.79997 10.14C4.13997 10.14 3.53997 9.96 2.99997 9.6V9.66C2.99997 11.64 4.37997 13.26 6.23997 13.62C5.57997 13.8 5.03997 13.8 4.43997 13.68C4.97997 15.3 6.41997 16.44 8.21997 16.5C6.83997 17.58 5.09997 18.24 3.17997 18.24C2.81997 18.24 2.51997 18.24 2.21997 18.18C4.01997 19.32 6.11997 19.98 8.39997 19.98C15.84 19.98 19.86 13.8 19.86 8.52C19.86 8.34 19.86 8.16 19.86 7.98C20.64 7.38 21.36 6.72 21.9 5.88C21.18 6.18 20.4 6.42 19.56 6.48C20.34 6 21 5.22 21.3 4.32Z" fill="current"/>
<path d="M19.8 7.98001C19.8 8.16001 19.8 8.34001 19.8 8.52001C19.8 13.86 15.72 19.98 8.34003 19.98C6.06003 19.98 3.90003 19.32 2.16003 18.18C2.46003 18.24 2.82003 18.24 3.12003 18.24C5.04003 18.24 6.72003 17.58 8.16003 16.5C6.36003 16.44 4.92003 15.3 4.38003 13.68C4.98003 13.8 5.58003 13.8 6.18003 13.62C4.32003 13.26 2.94003 11.64 2.94003 9.66001V9.60001C3.48003 9.90001 4.08003 10.08 4.74003 10.14C4.20003 9.78001 3.72003 9.30001 3.42003 8.70001C3.12003 8.10001 2.94003 7.44001 2.94003 6.78001C3.00003 6.00001 3.18003 5.34001 3.54003 4.74001C5.52003 7.20001 8.52003 8.82001 11.88 8.94001C11.28 6.18001 13.38 3.96001 15.84 3.96001C16.98 3.96001 18.06 4.44001 18.78 5.22001C19.68 5.04001 20.58 4.68001 21.36 4.26001C21.06 5.22001 20.4 6.00001 19.56 6.48001C20.4 6.42001 21.18 6.18001 21.9 5.88001C21.3 6.72001 20.64 7.44001 19.8 7.98001Z" fill="current"/>
</svg>
